<svg xmlns="http://www.w3.org/2000/svg" width="20" height="18.781" viewBox="0 0 20 18.781">
  <path id="Path_62" data-name="Path 62" d="M8.369,1.143q-1.9,1.147-3.7,2.466A11.9,11.9,0,0,0,1.691,6.471,7.817,7.817,0,0,0,.7,12.44a10.86,10.86,0,0,0,3.081,5.3,5.33,5.33,0,0,0,2.236,1.443,2.451,2.451,0,0,0,2.477-.611,5.482,5.482,0,0,0,.753-1.527,9.521,9.521,0,0,1,2.974-3.563A21.864,21.864,0,0,1,16,11.053a15.536,15.536,0,0,0,3.048-1.735A3.577,3.577,0,0,0,20.479,6.27a4.472,4.472,0,0,0-2.255-2.882C15.275,1.438,11.18-.55,8.369,1.143Z" transform="translate(-0.499 -0.503)" fill="#b0b554"/>
</svg>
