<svg xmlns="http://www.w3.org/2000/svg" width="95.78" height="87.825" viewBox="0 0 95.78 87.825">
  <path id="Path_92" data-name="Path 92" d="M20.89,77.76C13.8,76.245,8.141,70.3,5.037,63.477S1.018,49,.433,41.471c-.576-7.411-.856-14.988.991-22.17S7.549,5.293,14,2.135C19.466-.538,25.824-.332,31.766.757c12.452,2.284,25.029,9.077,30.427,21,3.769,8.325,3.528,18.282.327,26.861S53.359,64.46,46.346,70.052a39.463,39.463,0,0,1-13.214,7.31A26.967,26.967,0,0,1,20.89,77.76Z" transform="translate(0 61.052) rotate(-70)" fill="#f5f4f4"/>
</svg>
