<svg id="Component_55_34" data-name="Component 55 – 34" xmlns="http://www.w3.org/2000/svg" xmlns:xlink="http://www.w3.org/1999/xlink" width="33.56" height="31.435" viewBox="0 0 33.56 31.435">
  <defs>
    <clipPath id="clip-path">
      <rect id="Rectangle_191" data-name="Rectangle 191" width="33.56" height="31.435" fill="none"/>
    </clipPath>
  </defs>
  <g id="Group_156" data-name="Group 156" clip-path="url(#clip-path)">
    <path id="Path_96" data-name="Path 96" d="M23.438,21.278a.99.99,0,0,1,0-1.4l12.8-12.8a.99.99,0,0,0-.7-1.69H33.881a.989.989,0,0,0-.7.29l-12.37,12.37a.99.99,0,0,1-1.4,0L7.043,5.682a.99.99,0,0,0-.7-.29H4.69a.99.99,0,0,0-.7,1.69l12.8,12.8a.99.99,0,0,1,0,1.4l-12.8,12.8a.99.99,0,0,0,.7,1.69H6.344a.99.99,0,0,0,.7-.29l12.37-12.37a.99.99,0,0,1,1.4,0l12.37,12.37a.989.989,0,0,0,.7.29h1.654a.99.99,0,0,0,.7-1.69Z" transform="translate(-3.332 -4.858)" fill="#fff"/>
    <path id="Path_97" data-name="Path 97" d="M20.333,16.046c-.331-.379.044-.662.3-.917L21.666,14.1l3.477-3.477,7.22-7.22c.234-.234.473-.465.7-.7A1.608,1.608,0,0,0,33.31.679c-.516-.813-1.525-.637-2.351-.637a1.848,1.848,0,0,0-1.436.474C27.457,2.529,25.442,4.6,23.4,6.636c-2.018,2.018-4,4.081-6.058,6.058-.715.686-1.263-.1-1.756-.594L12.443,8.955,5,1.513C4.387.9,3.794.061,2.858.041,2.155.026,1.072-.148.5.353A1.6,1.6,0,0,0,.46,2.626C2.266,4.568,4.223,6.389,6.1,8.264L12.831,15a2.544,2.544,0,0,1,.49.514c.172.337-.2.611-.416.823l-2.62,2.62L2.5,26.744c-.67.67-1.354,1.328-2.011,2.011a1.6,1.6,0,0,0-.2,2.05c.541.782,1.579.594,2.4.594a1.782,1.782,0,0,0,1.366-.489c.279-.273.553-.552.829-.829L8.167,26.8l7.3-7.3c.461-.461,1.148-1.456,1.847-.823.718.65,1.378,1.378,2.063,2.063l7.77,7.77,2.336,2.336a1.723,1.723,0,0,0,1.28.553c.715.008,1.777.19,2.346-.348a1.6,1.6,0,0,0-.01-2.244c-.2-.217-.42-.42-.629-.629l-3.052-3.052L21.8,17.514l-1.468-1.468c-.436-.436-.794.408-.454.748l4.978,4.978,7.05,7.05c.232.232.469.461.7.7a.588.588,0,0,1,.217.341c.044.471-.52.551-.859.553-.543,0-1.464.177-1.911-.2-.212-.177-.4-.4-.593-.593l-6.951-6.951-3.455-3.455-1.026-1.026a2.719,2.719,0,0,0-.729-.606c-1.022-.474-1.777.586-2.407,1.216l-3.232,3.232L4.425,29.267c-.271.271-.538.547-.813.813a1.567,1.567,0,0,1-1.24.333c-.346,0-.71.032-1.054,0-.449-.042-.742-.407-.427-.794.139-.171.32-.32.476-.476l6.72-6.72c1.85-1.85,3.762-3.654,5.557-5.557a1.611,1.611,0,0,0,.039-2.221c-.133-.147-.283-.283-.423-.423l-2.7-2.7L2.924,3.889C2.265,3.23,1.59,2.583.945,1.91a.5.5,0,0,1-.2-.412c.055-.452.574-.471.922-.471.536,0,1.406-.169,1.847.2.67.56,1.261,1.261,1.878,1.878L9.077,6.79l6.481,6.481a2.321,2.321,0,0,0,.8.624,1.39,1.39,0,0,0,1.5-.44l2.279-2.279,7.634-7.634c.732-.732,1.45-1.482,2.2-2.2a1.613,1.613,0,0,1,1.271-.318c.334,0,.684-.032,1.016,0,.449.043.733.414.417.8-.488.592-1.11,1.11-1.652,1.652l-3.56,3.56-6.93,6.93c-.2.2-.408.4-.6.6a1.615,1.615,0,0,0-.044,2.226c.4.462.767-.389.454-.748" transform="translate(-0.001 0)" fill="#fff"/>
  </g>
</svg>
