<svg xmlns="http://www.w3.org/2000/svg" viewBox="0 0 530.68 668.1"><defs><style>.cls-1,.cls-2{stroke:#000;stroke-linecap:round;stroke-linejoin:round;}.cls-1{stroke-width:2px;}</style></defs><g id="Camada_2" data-name="Camada 2"><g id="Layer_2" data-name="Layer 2"><path d="M220.1,601.28a2.36,2.36,0,0,1,2-1.81,2.32,2.32,0,0,1,1.06.15l13.13,4.66a19,19,0,0,1,8.61,5.69,9.84,9.84,0,0,1,1.71,10.24A10.24,10.24,0,0,1,242,626a9.58,9.58,0,0,1-6.24,1.1l0,.11a12.61,12.61,0,0,1,6.28,5.06,9.54,9.54,0,0,1,.67,8.44q-2.37,6.66-8.45,8.3c-3.54,1-7.75.58-12.63-1.14l-13.81-4.9a2,2,0,0,1-1.42-1.31,3.16,3.16,0,0,1,.1-1.89Zm3.58,40.51q6.21,2.21,9.5-.61A6.24,6.24,0,0,0,235,638.4a7,7,0,0,0,.51-3,5.71,5.71,0,0,0-.66-2.24,6.94,6.94,0,0,0-1.51-1.85,14.47,14.47,0,0,0-2.07-1.51,24.12,24.12,0,0,0-4.1-1.9q-2.66-.95-5.67-1.85l-2.09-.65-4.65,13.2Zm-2.24-22c2.86,1,5.17,1.77,6.92,2.27,3,.86,5.32,1,7.08.33a6.14,6.14,0,0,0,3.7-4,5,5,0,0,0-.63-5.1c-1.13-1.39-3.12-2.59-6-3.6l-6.66-2.37Z"/><path d="M277.74,661a1.38,1.38,0,0,1-1.85,1.22L273,661.6c-.76-.16-1.19-.41-1.28-.75a2.3,2.3,0,0,1-.09-.87c0-.25.06-.56.08-.92.09-1,.14-2.06.17-3.21a11.48,11.48,0,0,1-8.37,4,15,15,0,0,1-3.91-.35,13.74,13.74,0,0,1-4-1.58,11.39,11.39,0,0,1-3.25-2.83,10.15,10.15,0,0,1-1.92-8.78,9.81,9.81,0,0,1,5.76-7.44,14.73,14.73,0,0,1,8.94-.51,13.38,13.38,0,0,1,8.08,4.89c.2-.65.41-1.47.63-2.47a8.36,8.36,0,0,0,.05-3.12,6.75,6.75,0,0,0-1.14-2.84,9.26,9.26,0,0,0-5.79-3.3,15.79,15.79,0,0,0-7.69.41,2.84,2.84,0,0,1-1.31.12c-.53-.12-.93-.74-1.19-1.88a6.29,6.29,0,0,1-.3-2.46c.18-.86,1-1.55,2.46-2.08q4.19-1.49,10.37-.17a14.41,14.41,0,0,1,8.66,5.08c2.38,3.08,3.1,6.87,2.13,11.37a37.47,37.47,0,0,1-2.58,7.32C278.18,654.32,278.25,658.23,277.74,661Zm-17-16.65a6.27,6.27,0,0,0-2.09,1.4,4.16,4.16,0,0,0-1,2,5.12,5.12,0,0,0,0,2.2,4.39,4.39,0,0,0,.86,1.79,5.9,5.9,0,0,0,3.35,2,9.91,9.91,0,0,0,3.4.24,8.08,8.08,0,0,0,2.48-.73,4.43,4.43,0,0,0,2.74-2.9,4.37,4.37,0,0,0-1.69-4,9.63,9.63,0,0,0-4.53-2.19A5.55,5.55,0,0,0,260.77,644.34Z"/><path d="M291.46,633.47c.16-1.43.87-2.07,2.12-1.93l1.61.19a2.4,2.4,0,0,1,2.16,1.69,19.41,19.41,0,0,1,.77,5.91s0,.06,0,.07a5.07,5.07,0,0,0,.31-1,8.75,8.75,0,0,1,1.15-2.39,8.92,8.92,0,0,1,2-2.29,7.32,7.32,0,0,1,5.41-1.4c2.28.26,3.83.82,4.63,1.68a1.42,1.42,0,0,1,.35,1.45l-.91,3.7a1.47,1.47,0,0,1-1.72,1.34,6.25,6.25,0,0,1-1.58-.45,12.33,12.33,0,0,0-2.86-.81,3.79,3.79,0,0,0-2.37.68,8.84,8.84,0,0,0-2.32,2.1,11.87,11.87,0,0,0-2.47,6L296,663.86a2.1,2.1,0,0,1-.64,1.34,1.69,1.69,0,0,1-1.43.41l-3.46-.39a1.88,1.88,0,0,1-1.38-.73,2.13,2.13,0,0,1-.33-1.46l2.35-20.52a43.65,43.65,0,0,0,.45-7A15.78,15.78,0,0,1,291.46,633.47Z"/><path d="M316.58,636c.05-1.44.7-2.14,2-2.09l1.62,0a2.41,2.41,0,0,1,2.29,1.52,19.58,19.58,0,0,1,1.24,5.83s0,.06,0,.06a4.49,4.49,0,0,0,.23-1,8.91,8.91,0,0,1,1-2.47,8.75,8.75,0,0,1,1.86-2.44,7.35,7.35,0,0,1,5.28-1.84c2.29.08,3.88.52,4.75,1.31a1.43,1.43,0,0,1,.46,1.42l-.61,3.76c-.15,1-.69,1.51-1.6,1.47a6,6,0,0,1-1.61-.32,13,13,0,0,0-2.92-.58,3.8,3.8,0,0,0-2.31.87,8.86,8.86,0,0,0-2.15,2.28,12,12,0,0,0-2,6.2l-.54,15.91a2.07,2.07,0,0,1-.52,1.39,1.71,1.71,0,0,1-1.4.52l-3.47-.12a1.83,1.83,0,0,1-1.44-.61,2.19,2.19,0,0,1-.45-1.43L317,645a44.25,44.25,0,0,0-.1-7A14.59,14.59,0,0,1,316.58,636Z"/><path d="M348.51,652.64v.58a8.69,8.69,0,0,0,3,6.42,10.22,10.22,0,0,0,7.55,2.18,13.62,13.62,0,0,0,7.74-3,2.3,2.3,0,0,1,1.2-.56,1.82,1.82,0,0,1,1.75,1l.91,1.62a3,3,0,0,1,.34,1.27,2.22,2.22,0,0,1-.52,1.46A6.35,6.35,0,0,1,369,665a11.65,11.65,0,0,1-2.23,1.19,22,22,0,0,1-2.63.91,26.94,26.94,0,0,1-5.7,1,17,17,0,0,1-6.1-.76,15,15,0,0,1-5.46-3q-5-4.35-5.52-12.25-.85-13.84,8.69-17.83a20.6,20.6,0,0,1,11.72-1.08,11.31,11.31,0,0,1,4,1.8,9.69,9.69,0,0,1,4,7.71,8.57,8.57,0,0,1-3.6,7.88,17.11,17.11,0,0,1-9.25,2.88A31.61,31.61,0,0,1,348.51,652.64ZM362.69,643q-.26-4.29-6-3.93c-3.65.22-6.12,1.72-7.42,4.48a9.32,9.32,0,0,0-.8,3.53,14.73,14.73,0,0,0,6.63.89Q363,647.48,362.69,643Z"/><path d="M380.22,625.21a4.82,4.82,0,0,1-3.65-.87,4.57,4.57,0,0,1-1.94-3.23,4.68,4.68,0,0,1,.9-3.65,4.74,4.74,0,0,1,3.23-1.88,4.55,4.55,0,0,1,4.89,2.23,4.83,4.83,0,0,1,.67,1.84,4.61,4.61,0,0,1-.91,3.65A4.74,4.74,0,0,1,380.22,625.21Zm8.14,30.48q.33,2.1,1.71,1.89a2.67,2.67,0,0,0,1-.43,5.07,5.07,0,0,1,1.5-.74c.41-.06.79.18,1.13.71l1.24,1.94a2.43,2.43,0,0,1,.38.91c.12.85-.49,1.75-1.84,2.7a9.12,9.12,0,0,1-3.94,1.69,9.77,9.77,0,0,1-3.32,0,4.74,4.74,0,0,1-2.29-1.17q-2.06-1.87-2.77-6.67l-3.49-23.12A2.12,2.12,0,0,1,378,632a1.46,1.46,0,0,1,1-.74l4-.6a1.43,1.43,0,0,1,1.21.4,2.19,2.19,0,0,1,.65,1.32Z"/><path d="M396.94,630.47c-.32-1.4.14-2.24,1.36-2.52l1.58-.36a2.41,2.41,0,0,1,2.6.89,19.35,19.35,0,0,1,2.68,5.32s0,.06.06.05a4.29,4.29,0,0,0,0-1,9.12,9.12,0,0,1,.3-2.63,8.88,8.88,0,0,1,1.17-2.83,7.28,7.28,0,0,1,4.64-3.11c2.24-.51,3.89-.49,4.93,0a1.47,1.47,0,0,1,.81,1.26l.37,3.79a1.49,1.49,0,0,1-1.19,1.84,6.66,6.66,0,0,1-1.63.09,12.49,12.49,0,0,0-3,.18,3.77,3.77,0,0,0-2,1.43,8.9,8.9,0,0,0-1.5,2.75,12,12,0,0,0-.34,6.5l3.52,15.52a2.12,2.12,0,0,1-.15,1.48,1.71,1.71,0,0,1-1.22.86l-3.39.77a1.83,1.83,0,0,1-1.55-.24,2,2,0,0,1-.79-1.26l-4.57-20.14a43.52,43.52,0,0,0-1.87-6.72A14.22,14.22,0,0,1,396.94,630.47Z"/><path d="M425.08,638.06a19.29,19.29,0,0,1-1.07-7.19,16.59,16.59,0,0,1,1.59-6.42,16.22,16.22,0,0,1,9.82-8.45q7.69-2.62,13.47.51,5.6,3,8.21,10.69a17.55,17.55,0,0,1-.48,13.72,16.08,16.08,0,0,1-9.8,8.5q-7.23,2.48-13.24-.77T425.08,638.06Zm6.66-10.33a11.57,11.57,0,0,0-.33,4.1,18.48,18.48,0,0,0,.91,4.22,14.67,14.67,0,0,0,1.89,3.75,11.15,11.15,0,0,0,2.81,2.8,8.51,8.51,0,0,0,7.91.91A8.24,8.24,0,0,0,450.6,638a13.24,13.24,0,0,0-.54-8.27q-2.44-7.18-8.09-8.3a10,10,0,0,0-8.34,2.8A8.43,8.43,0,0,0,431.74,627.73Z"/><path d="M173.9,604C117.49,570.77,71.52,520.63,44.6,460.79,18.59,403,9.85,338,21,275.48a306.94,306.94,0,0,1,90.38-168.55A317.3,317.3,0,0,1,468.07,52.51c7.6,3.7,15,7.71,22.34,12,7.94,4.63,19.25-14.82,11.25-19.49A330.41,330.41,0,0,0,305.45,1.36,335,335,0,0,0,123,77C68.25,122.39,28.94,185.11,10.83,253.83a334.41,334.41,0,0,0,9,197.79A330.39,330.39,0,0,0,140.72,609.45c7.12,5,14.45,9.64,21.93,14,7.91,4.66,19.23-14.78,11.25-19.48Z"/><path d="M181.81,483.2q-4.78,0-4.79-4.73,0-5.43-3.33-8.3a11.26,11.26,0,0,0-7.68-2.51,14.74,14.74,0,0,0-8,2,16.43,16.43,0,0,0-5.15,5.08A26.7,26.7,0,0,0,149,489.34q0,15.95,9.7,20.91a16.6,16.6,0,0,0,7.77,1.81,22.27,22.27,0,0,0,7-.93,37.29,37.29,0,0,0,4.9-2.05c1.44-.74,2.7-1.42,3.77-2a5.6,5.6,0,0,1,2.66-.94,3.77,3.77,0,0,1,3.33,1.93l1.28,2.16a5.85,5.85,0,0,1,.88,2.95,5,5,0,0,1-1.17,3,12.32,12.32,0,0,1-3.12,2.83,27.51,27.51,0,0,1-4.47,2.34,46.91,46.91,0,0,1-5.2,1.81q-12.85,3.45-23.49-1.05-11.91-5-16.41-18a43.87,43.87,0,0,1-2.22-14.37,40.35,40.35,0,0,1,2.37-14.26,30.7,30.7,0,0,1,6.57-10.69q8.7-9,22.72-9,12.39,0,19,6.48a18.85,18.85,0,0,1,5.55,13.9q0,7.08-7.25,7.07Z"/><path d="M260.62,520c0,2.06-1,3.09-3,3.09h-5.67c-1.52,0-2.43-.3-2.74-.9a4.27,4.27,0,0,1-.53-1.64c0-.48-.12-1.08-.23-1.78q-.36-2.87-1-6.19a22.25,22.25,0,0,1-14.31,11,29.11,29.11,0,0,1-7.59.94,26.17,26.17,0,0,1-8.3-1.38,22.21,22.21,0,0,1-7.36-4.06,19.79,19.79,0,0,1-7.24-15.95q0-10.8,7.94-16.53,6.54-4.6,16.83-4.61a26.06,26.06,0,0,1,17.4,6c.12-1.32.18-3,.18-5a16.2,16.2,0,0,0-1.17-6,13.08,13.08,0,0,0-3.33-5q-4.44-3.92-12.38-3.92a30.73,30.73,0,0,0-14.49,3.92,5.38,5.38,0,0,1-2.45.75q-1.59,0-3-3.09a12.17,12.17,0,0,1-1.58-4.56c0-1.71,1.29-3.37,3.86-5q7.35-4.56,19.68-4.56,11.22,0,18.58,6.13,8.7,7.36,8.7,20.8a75,75,0,0,1-1.92,15Q260.39,511.86,260.62,520Zm-39.14-24.8a12.58,12.58,0,0,0-3.42,3.53,8.07,8.07,0,0,0-1,4.12,10,10,0,0,0,.84,4.21,8.48,8.48,0,0,0,2.37,3.07,11.44,11.44,0,0,0,7.21,2.51,19.39,19.39,0,0,0,6.58-.94,16.18,16.18,0,0,0,4.44-2.39c2.68-2.1,4-4.32,4-6.66-.24-2.92-1.85-5.22-4.85-6.89a18.64,18.64,0,0,0-9.52-2.34A10.92,10.92,0,0,0,221.48,495.24Z"/><path d="M277.44,462.91q0-4.21,4-4.21h3.21q3.27,0,4.44,2.45a42.51,42.51,0,0,1,2.81,9.23,24.07,24.07,0,0,1,15.65-12.26,31.8,31.8,0,0,1,8.15-.88,20,20,0,0,1,9,2.07,16.67,16.67,0,0,1,6.54,5.7q4.44,6.6,4.44,19.45v36.28a3.85,3.85,0,0,1-1.05,2.75,4.08,4.08,0,0,1-3.1,1.11h-5.72a4.31,4.31,0,0,1-3.27-1.11,3.82,3.82,0,0,1-1.06-2.75V484.4q0-14.94-11-14.95-6.42,0-11.74,5.37a18.63,18.63,0,0,0-5.67,13.44v32.48a4,4,0,0,1-1,2.75,3.86,3.86,0,0,1-3,1.11h-6a4.06,4.06,0,0,1-3.1-1.11,3.85,3.85,0,0,1-1.05-2.75V484.87a119,119,0,0,0-.76-16.38A55,55,0,0,1,277.44,462.91Z"/><path d="M364.25,446.43a9.34,9.34,0,0,1-6.78-2.74,9,9,0,0,1-2.8-6.78,9.36,9.36,0,0,1,9.58-9.46,8.88,8.88,0,0,1,8.76,5.72A9.58,9.58,0,0,1,371,443.69,9.22,9.22,0,0,1,364.25,446.43Zm6.83,61.11c0,2.76.92,4.15,2.75,4.15a5.23,5.23,0,0,0,2.1-.53,9.94,9.94,0,0,1,3.1-1c.81,0,1.48.56,2,1.69l1.81,4.09a4.45,4.45,0,0,1,.47,1.87q0,2.5-4.32,4.67a17.65,17.65,0,0,1-8.09,2.11,19.2,19.2,0,0,1-6.4-.88,9.52,9.52,0,0,1-4.09-2.92Q357,516.59,357,507.13V461.56a4.07,4.07,0,0,1,.94-2.74,2.81,2.81,0,0,1,2.22-1.11H368a2.73,2.73,0,0,1,2.22,1.11,4.3,4.3,0,0,1,.87,2.74Z"/><path d="M397,462.91q0-4.21,4-4.21h3.21q3.27,0,4.44,2.45a42.51,42.51,0,0,1,2.81,9.23,24.07,24.07,0,0,1,15.65-12.26,31.8,31.8,0,0,1,8.15-.88,20,20,0,0,1,9,2.07,16.67,16.67,0,0,1,6.54,5.7q4.44,6.6,4.44,19.45v36.28a3.85,3.85,0,0,1-1.05,2.75,4.08,4.08,0,0,1-3.1,1.11h-5.72a4.31,4.31,0,0,1-3.27-1.11,3.82,3.82,0,0,1-1.06-2.75V484.4q0-14.94-11-14.95-6.42,0-11.74,5.37a18.63,18.63,0,0,0-5.67,13.44v32.48a4,4,0,0,1-1,2.75,3.86,3.86,0,0,1-3,1.11h-6a4.06,4.06,0,0,1-3.1-1.11,3.85,3.85,0,0,1-1-2.75V484.87a119,119,0,0,0-.76-16.38A55,55,0,0,1,397,462.91Z"/><path d="M529.68,520q0,3.09-3,3.09H521c-1.52,0-2.43-.3-2.75-.9a4.42,4.42,0,0,1-.52-1.64c0-.48-.12-1.08-.24-1.78q-.35-2.87-1-6.19a22.27,22.27,0,0,1-14.31,11,29.11,29.11,0,0,1-7.59.94,26.17,26.17,0,0,1-8.3-1.38,22.11,22.11,0,0,1-7.36-4.06,19.79,19.79,0,0,1-7.24-15.95q0-10.8,7.94-16.53,6.54-4.6,16.82-4.61a26.07,26.07,0,0,1,17.41,6c.12-1.32.18-3,.18-5a16.2,16.2,0,0,0-1.17-6,13.08,13.08,0,0,0-3.33-5q-4.44-3.92-12.38-3.92a30.7,30.7,0,0,0-14.49,3.92,5.38,5.38,0,0,1-2.46.75q-1.57,0-3-3.09a12.17,12.17,0,0,1-1.58-4.56c0-1.71,1.29-3.37,3.86-5q7.35-4.56,19.68-4.56,11.22,0,18.58,6.13,8.7,7.36,8.7,20.8a75,75,0,0,1-1.92,15Q529.44,511.86,529.68,520Zm-39.14-24.8a12.67,12.67,0,0,0-3.41,3.53,8.07,8.07,0,0,0-1,4.12,10,10,0,0,0,.84,4.21,8.38,8.38,0,0,0,2.37,3.07,11.42,11.42,0,0,0,7.21,2.51,19.29,19.29,0,0,0,6.57-.94,15.9,15.9,0,0,0,4.44-2.39q4-3.15,4-6.66c-.23-2.92-1.85-5.22-4.84-6.89a18.67,18.67,0,0,0-9.53-2.34A11,11,0,0,0,490.54,495.24Z"/><path d="M181.94,374.51q-4.81,0-4.81-4.74c0-3.63-1.11-6.41-3.34-8.32a11.25,11.25,0,0,0-7.7-2.52,14.81,14.81,0,0,0-8,2,16.53,16.53,0,0,0-5.16,5.1,26.81,26.81,0,0,0-3.86,14.64q0,16,9.72,21a16.71,16.71,0,0,0,7.79,1.81,22.37,22.37,0,0,0,7-.93,38.21,38.21,0,0,0,4.92-2.05c1.44-.74,2.7-1.43,3.78-2a5.6,5.6,0,0,1,2.66-.94,3.78,3.78,0,0,1,3.34,1.93l1.29,2.17a6,6,0,0,1,.88,3,5,5,0,0,1-1.17,3,12.64,12.64,0,0,1-3.14,2.84,28,28,0,0,1-4.48,2.34,45.1,45.1,0,0,1-5.21,1.81q-12.88,3.47-23.55-1.05-11.94-5-16.45-18A43.76,43.76,0,0,1,134.26,381a40.52,40.52,0,0,1,2.37-14.29A30.93,30.93,0,0,1,143.22,356q8.73-9,22.78-9,12.42,0,19,6.5a18.91,18.91,0,0,1,5.56,13.94q0,7.09-7.26,7.09Z"/><path d="M206.36,354.16q0-4.21,3.69-4.21h3.16a4.67,4.67,0,0,1,4.57,2.81,37.72,37.72,0,0,1,2.81,11.3q0,.12.09.12a9.28,9.28,0,0,0,.38-2,17.33,17.33,0,0,1,1.7-4.89,17.15,17.15,0,0,1,3.45-4.89,14.29,14.29,0,0,1,10.19-3.93q6.73,0,9.38,2.23a2.8,2.8,0,0,1,1,2.75l-.94,7.38c-.23,2-1.25,3-3,3a12.12,12.12,0,0,1-3.16-.53,24.88,24.88,0,0,0-5.74-.94,7.32,7.32,0,0,0-4.45,1.85,17.38,17.38,0,0,0-4.05,4.6,23.33,23.33,0,0,0-3.45,12.24v31.1a4.1,4.1,0,0,1-.94,2.75,3.32,3.32,0,0,1-2.69,1.11h-6.8a3.57,3.57,0,0,1-2.84-1.11,4.06,4.06,0,0,1-1-2.75V371.79q0-10.31-.68-13.61A31.31,31.31,0,0,1,206.36,354.16Z"/><path d="M267.62,384.74l-.06,1.11q0,8,5.1,12.89,5.32,5.14,14.47,5.15a26.53,26.53,0,0,0,15.46-5A4.42,4.42,0,0,1,305,398a3.54,3.54,0,0,1,3.28,2.17l1.58,3.28a6.09,6.09,0,0,1,.53,2.52,4.4,4.4,0,0,1-1.2,2.78,12.36,12.36,0,0,1-3.14,2.61,23.3,23.3,0,0,1-4.48,2.05,46.44,46.44,0,0,1-5.24,1.46A52.83,52.83,0,0,1,285.08,416a33.6,33.6,0,0,1-11.81-2.22,28.92,28.92,0,0,1-10.27-6.5q-9.31-9.09-9.32-24.54,0-27.12,19.1-33.74a40.11,40.11,0,0,1,23-.7,22.13,22.13,0,0,1,7.64,4q6.79,5.56,6.79,15.52,0,9.78-8,14.94-7,4.5-18.39,4.51A62.39,62.39,0,0,1,267.62,384.74Zm28.82-17.11q0-8.37-11.25-8.37-10.71,0-15,7.85a18.17,18.17,0,0,0-2,6.79q5,2.52,12.83,2.52Q296.43,376.42,296.44,367.63Z"/><path d="M371.76,374.51q-4.8,0-4.8-4.74c0-3.63-1.12-6.41-3.34-8.32a11.27,11.27,0,0,0-7.7-2.52,14.85,14.85,0,0,0-8,2,16.39,16.39,0,0,0-5.15,5.1,26.73,26.73,0,0,0-3.87,14.64q0,16,9.73,21a16.67,16.67,0,0,0,7.78,1.81,22.28,22.28,0,0,0,7-.93,37,37,0,0,0,4.92-2.05c1.45-.74,2.71-1.43,3.78-2a5.6,5.6,0,0,1,2.67-.94,3.77,3.77,0,0,1,3.33,1.93l1.29,2.17a5.88,5.88,0,0,1,.88,3,5,5,0,0,1-1.17,3,12.59,12.59,0,0,1-3.13,2.84,28.44,28.44,0,0,1-4.48,2.34,44.61,44.61,0,0,1-5.22,1.81q-12.88,3.47-23.54-1.05-12-5-16.46-18A44,44,0,0,1,324.08,381a40.52,40.52,0,0,1,2.38-14.29A30.78,30.78,0,0,1,333.05,356q8.71-9,22.78-9,12.42,0,19,6.5a18.92,18.92,0,0,1,5.57,13.94q0,7.09-7.26,7.09Z"/><path d="M399.4,315.86a3.94,3.94,0,0,1,.91-2.64,2.82,2.82,0,0,1,2.2-1.05h8a2.79,2.79,0,0,1,2.23,1.05,4,4,0,0,1,.88,2.64V360.2a22.84,22.84,0,0,1,14.81-11,34.34,34.34,0,0,1,7.88-.76,19.77,19.77,0,0,1,8.93,2.08,17,17,0,0,1,6.62,5.71q4.39,6.63,4.4,19.51v36.37a3.81,3.81,0,0,1-1.06,2.81,4.21,4.21,0,0,1-3.1,1.05h-5.74a4.32,4.32,0,0,1-3.28-1.11,3.82,3.82,0,0,1-1.06-2.75V375.72q0-15-11-15-6.15,0-11.59,5.39a18.61,18.61,0,0,0-5.8,13.47v32.57a4,4,0,0,1-1,2.75,4.13,4.13,0,0,1-3.22,1.11H403a3.36,3.36,0,0,1-2.67-1.11,4.07,4.07,0,0,1-1-2.75Z"/><path d="M487.38,384.74l-.06,1.11q0,8,5.09,12.89,5.34,5.14,14.47,5.15a26.5,26.5,0,0,0,15.46-5,4.42,4.42,0,0,1,2.4-.94,3.53,3.53,0,0,1,3.28,2.17l1.58,3.28a5.93,5.93,0,0,1,.53,2.52,4.4,4.4,0,0,1-1.2,2.78,12.3,12.3,0,0,1-3.13,2.61,23.58,23.58,0,0,1-4.48,2.05,47.21,47.21,0,0,1-5.25,1.46A52.83,52.83,0,0,1,504.83,416a33.51,33.51,0,0,1-11.8-2.22,28.88,28.88,0,0,1-10.28-6.5q-9.31-9.09-9.31-24.54,0-27.12,19.09-33.74A37.44,37.44,0,0,1,504.8,347a37.06,37.06,0,0,1,10.72,1.35,22,22,0,0,1,7.64,4q6.8,5.56,6.8,15.52,0,9.78-8,14.94-7,4.5-18.39,4.51A62.32,62.32,0,0,1,487.38,384.74Zm28.81-17.11q0-8.37-11.24-8.37-10.72,0-15,7.85a18.36,18.36,0,0,0-2,6.79q5,2.52,12.83,2.52Q516.19,376.42,516.19,367.63Z"/><path class="cls-1" d="M387.62,147.12a2.06,2.06,0,0,1-2.4-2.48c1.87-8.62,10.68-15.08,19.66-16.34,10-1.4,20,2.11,29.31,6a297.59,297.59,0,0,1,81.57,51.4c7,6.25,14.32,14.07,13.91,23.49-.49,11-11.06,18.47-20.53,24.14l-48.71,29.24c-10.48,6.29-23.29,12.74-34.31,7.44-6.61-3.19-10.82-10.16-12.17-17.37s-.2-14.66,1.62-21.76c3.93-15.4,10.94-30,13.63-45.65,2.45-14.25.49-30.43-9-40.93a7.39,7.39,0,0,0-6.88-2.21Z"/><path class="cls-2" d="M292,202.6,272.6,179.47c-4.77-5.7-9.06-10.27-14.91-12.33a21.75,21.75,0,0,0-5.17-1c-8.66-.8-16-.07-22.51,4.4-7.45,5.1-12.8,12.66-18,20.06l-18.57,26.5a16.92,16.92,0,0,0-2.12,4c-3.69,10.29,7.2,13.61,10.74,20.93,2.23,4.62,1.21,10.05,1,15.18-.26,6.57,1.89,14.62,10.48,14.16a14.37,14.37,0,0,0,5.25-1.4l63.07-29.42c8.4-3.92,17.93-9.35,18.95-18.55C301.64,214.69,296.66,208.2,292,202.6Zm-28.59,17.23c-.17,3.52-1,5.17-4.56,3a20.84,20.84,0,0,0-24.45,2c-2,1.82-5.15,6.12-6,1.27a20.44,20.44,0,0,1-.27-3.94,9.82,9.82,0,0,1,.39-3.83c3-7.7,14.14-11.07,21.59-10.47,3.78.3,10.14,1.66,12.51,5C263.87,214.67,263.48,217.68,263.38,219.83Z"/><path d="M403.67,222.43c-.2-1.24-1.32-2.34-2.15-3.22a21.67,21.67,0,0,0-2.94-2.56,23.29,23.29,0,0,0-6.53-3.33,24.84,24.84,0,0,0-14.73-.32,22.1,22.1,0,0,0-7.56,4,1.77,1.77,0,0,0,0,2.49,1.8,1.8,0,0,0,2.48,0,19.57,19.57,0,0,1,15.24-3.69,21.5,21.5,0,0,1,7.68,2.78,17.89,17.89,0,0,1,3.22,2.45c1,1,1.82,2.42,3,3.14A1.56,1.56,0,0,0,403.67,222.43Z"/><path d="M403.8,218.33c-2.91-7.45-13.53-10.82-20.76-10.51-4,.18-10.67,1.47-13.28,4.93-1.38,1.84-1,4.92-.89,7.08.13,2.8.64,5.38,4,3.47,3.76-2.15,7.31-3.6,11.75-3.52a21,21,0,0,1,12.79,4.6c2,1.72,5.59,6.88,6.54,1.72a21.41,21.41,0,0,0,.17-5.82c0-.4-.35-3.12-.64-1.52-.72,3.9-5.6-2.52-6.61-3.29A21.33,21.33,0,0,0,378.75,212a18.69,18.69,0,0,0-4.08,1.63c-.52.29-4.94,2.58-4.93,3l-.32,5.23c3.38-5.59,13.88-6.18,19.42-5.14,5.35,1,12.59,4.38,14.71,9.8.2.5.57-2.72.58-3C404.19,222,404.39,219.86,403.8,218.33Z"/><path class="cls-2" d="M317.36,332.85h-2.47a1.91,1.91,0,0,1-1.56-.79,2.82,2.82,0,0,0-.68-.7L290,315.67a14.84,14.84,0,0,1-6.08-7.64h0l0-.07a27.22,27.22,0,0,1-1.37-8.88,25,25,0,0,1,1.46-8.81,19.15,19.15,0,0,1,4.06-6.61q5.38-5.57,14.05-5.56,7.65,0,11.74,4a12,12,0,0,1,1,1.15,1.68,1.68,0,0,0,2.66,0,12.17,12.17,0,0,1,1-1.15q4.08-4,11.73-4,8.67,0,14.05,5.56a19,19,0,0,1,4.06,6.61,24.82,24.82,0,0,1,1.46,8.81A27,27,0,0,1,348.4,308h0l0,.1a14.93,14.93,0,0,1-6.23,7.73l-22.55,15.57a2.82,2.82,0,0,0-.68.7A1.9,1.9,0,0,1,317.36,332.85Z"/></g></g></svg>