<svg id="Group_150" data-name="Group 150" xmlns="http://www.w3.org/2000/svg" xmlns:xlink="http://www.w3.org/1999/xlink" width="33.556" height="18.061" viewBox="0 0 33.556 18.061">
  <defs>
    <clipPath id="clip-path">
      <rect id="Rectangle_190" data-name="Rectangle 190" width="33.556" height="18.061" fill="none"/>
    </clipPath>
  </defs>
  <g id="Group_149" data-name="Group 149" clip-path="url(#clip-path)">
    <path id="Path_94" data-name="Path 94" d="M21.914,21.253,37.229,5.938a.983.983,0,0,0-.7-1.678H34.891a.983.983,0,0,0-.695.288L21.914,16.831a.982.982,0,0,1-1.389,0L8.241,4.548a.983.983,0,0,0-.695-.288H5.9a.983.983,0,0,0-.7,1.678L20.524,21.253a.982.982,0,0,0,1.389,0" transform="translate(-4.436 -3.841)"/>
    <path id="Path_95" data-name="Path 95" d="M17.859,17.673l5.331-5.331,8.31-8.31c.556-.556,1.133-1.1,1.671-1.671A1.394,1.394,0,0,0,32.032.045c-.75-.026-1.9-.183-2.535.3a21.16,21.16,0,0,0-1.96,1.943L23.376,6.446l-4.2,4.2c-.681.681-1.332,1.449-2.069,2.069-.414.349-.628.078-.908-.2l-1.168-1.168L11.063,7.383C8.8,5.119,6.572,2.811,4.268.588a2.413,2.413,0,0,0-1.9-.543c-.935,0-2.24-.057-2.364,1.2-.087.882.949,1.617,1.506,2.174L9.49,11.394c2.045,2.045,4.058,4.13,6.139,6.139a1.607,1.607,0,0,0,2.23.141c.426-.372-.414-.83-.764-.525-.4.352-.635.054-.906-.217l-.977-.977L11.77,12.512,3.544,4.286,1.309,2.051c-.047-.047-.1-.092-.142-.142A.666.666,0,0,1,1.472.8,6.163,6.163,0,0,1,2.584.792,1.385,1.385,0,0,1,3.423.9a5.744,5.744,0,0,1,.606.606L5.386,2.868,9.418,6.9c2.079,2.079,4.118,4.211,6.243,6.243a1.6,1.6,0,0,0,2.207.1c.211-.19.4-.4.606-.606L21.7,9.414l7.7-7.7c.237-.237.465-.487.713-.713a.849.849,0,0,1,.6-.214c.436-.018.883-.012,1.32,0,.666.018.667.737.292,1.133-.241.256-.5.5-.747.747L24.2,10.046l-6.725,6.725-.378.378c-.4.4.435.854.764.525" transform="translate(0 0)"/>
  </g>
</svg>
