<svg id="Group_150" data-name="Group 150" xmlns="http://www.w3.org/2000/svg" xmlns:xlink="http://www.w3.org/1999/xlink" width="33.556" height="18.061" viewBox="0 0 33.556 18.061">
  <defs>
    <clipPath id="clip-path">
      <rect id="Rectangle_190" data-name="Rectangle 190" width="33.556" height="18.061" fill="#fff"/>
    </clipPath>
  </defs>
  <g id="Group_149" data-name="Group 149" clip-path="url(#clip-path)">
    <path id="Path_94" data-name="Path 94" d="M21.914,4.548,37.229,19.862a.983.983,0,0,1-.7,1.678H34.891a.983.983,0,0,1-.695-.288L21.914,8.969a.983.983,0,0,0-1.389,0L8.241,21.252a.983.983,0,0,1-.695.288H5.9a.983.983,0,0,1-.7-1.678L20.524,4.548a.983.983,0,0,1,1.389,0" transform="translate(-4.436 -3.898)" fill="#fff"/>
    <path id="Path_95" data-name="Path 95" d="M17.859.387,23.19,5.717l8.31,8.31c.556.556,1.133,1.1,1.671,1.671a1.394,1.394,0,0,1-1.139,2.317c-.75.026-1.9.183-2.535-.3a21.16,21.16,0,0,1-1.96-1.943l-4.161-4.161-4.2-4.2c-.681-.681-1.332-1.449-2.069-2.069-.414-.349-.628-.078-.908.2L15.028,6.712l-3.965,3.965C8.8,12.941,6.572,15.249,4.268,17.472a2.413,2.413,0,0,1-1.9.543c-.935,0-2.24.057-2.364-1.2-.087-.882.949-1.617,1.506-2.174L9.49,6.666c2.045-2.045,4.058-4.13,6.139-6.138a1.607,1.607,0,0,1,2.23-.141c.426.372-.414.83-.764.525-.4-.352-.635-.054-.906.217l-.977.977L11.77,5.547,3.544,13.774,1.309,16.008c-.047.047-.1.092-.142.142a.666.666,0,0,0,.3,1.111,6.163,6.163,0,0,0,1.112.007,1.385,1.385,0,0,0,.839-.113,5.744,5.744,0,0,0,.606-.606l1.357-1.357L9.418,11.16c2.079-2.079,4.118-4.211,6.243-6.243a1.6,1.6,0,0,1,2.207-.1c.211.19.4.4.606.606L21.7,8.646l7.7,7.7c.237.237.465.487.713.713a.849.849,0,0,0,.6.214c.436.018.883.012,1.32,0,.666-.018.667-.737.292-1.133-.241-.256-.5-.5-.747-.747L24.2,8.014,17.474,1.289,17.1.911c-.4-.4.435-.854.764-.525" transform="translate(0 0.001)" fill="#fff"/>
  </g>
</svg>
