<svg xmlns="http://www.w3.org/2000/svg" xmlns:xlink="http://www.w3.org/1999/xlink" width="76.61" height="77.547" viewBox="0 0 76.61 77.547">
  <defs>
    <clipPath id="clip-path">
      <rect id="Rectangle_184" data-name="Rectangle 184" width="76.61" height="77.547" fill="none"/>
    </clipPath>
  </defs>
  <g id="Group_139" data-name="Group 139" transform="translate(-15.002)">
    <g id="Group_138" data-name="Group 138" transform="translate(15.002)" clip-path="url(#clip-path)">
      <path id="Path_84" data-name="Path 84" d="M60.83,71.318a27.226,27.226,0,0,1-18.081,1.088C36.91,70.723,31.7,66.86,27,63.122A85.348,85.348,0,0,1,13.939,50.195c-3.634-4.464-7.378-9.4-9.327-14.872a25.824,25.824,0,0,1-.473-15.631A26.919,26.919,0,0,1,11.281,8.013c.97-.97,1.917-1.968,2.912-2.912a3.516,3.516,0,0,1,4.922,0c2.271,2.1,4.388,4.388,6.573,6.573a13.979,13.979,0,0,1,2.269,2.413c.878,1.486.026,2.565-1.134,3.437l-7.766,5.837a9.292,9.292,0,0,0-2.853,2.8,5.9,5.9,0,0,0,.681,6.8C17.89,34.025,18.96,35.036,20,36.071L34.649,50.725c3.277,3.277,6.512,6.6,9.835,9.835a4.885,4.885,0,0,0,6.27.682,10.534,10.534,0,0,0,2.383-2.655l5.805-7.74a3.376,3.376,0,0,1,4.327-1.3A10.367,10.367,0,0,1,65.7,51.688c2.2,2.2,4.426,4.39,6.611,6.612,1.228,1.248,1.549,2.629.294,3.965-1.48,1.575.257,4.627,2.1,2.666a7.242,7.242,0,0,0,.78-8.762,17.147,17.147,0,0,0-2.352-2.512c-2.2-2.2-4.371-4.427-6.6-6.6a6.03,6.03,0,0,0-7.734-.868,12.066,12.066,0,0,0-2.745,3.031c-1.96,2.614-3.906,5.239-5.881,7.842a2.146,2.146,0,0,1-1.179.9,2.359,2.359,0,0,1-1.331-.054,3.159,3.159,0,0,1-.681-.357c-.1-.06-.338-.276-.119-.078-.326-.295-.625-.625-.936-.936L40.5,51.11l-15.8-15.8-4.9-4.9A4.107,4.107,0,0,1,18.663,29c-.3-.9.673-1.415,1.433-1.986l8.038-6.041a7.671,7.671,0,0,0,3.3-5.307,6.944,6.944,0,0,0-2.1-5.812L22.25,2.772A8.22,8.22,0,0,0,18.425.159,6.452,6.452,0,0,0,12.3,2.206C9.113,5.39,5.988,8.466,3.778,12.452a31.01,31.01,0,0,0-3.7,17.187A30.133,30.133,0,0,0,2,38.212,41.836,41.836,0,0,0,6.38,46.22,87.393,87.393,0,0,0,18.616,60.96,89.32,89.32,0,0,0,33.807,72.8,29.488,29.488,0,0,0,61.5,75.158c1.794-.755,1.538-4.766-.665-3.84" transform="translate(0 0)" fill="#b0b554"/>
    </g>
  </g>
</svg>
