<svg id="Group_135" data-name="Group 135" xmlns="http://www.w3.org/2000/svg" xmlns:xlink="http://www.w3.org/1999/xlink" width="76.79" height="77.8" viewBox="0 0 76.79 77.8">
  <defs>
    <clipPath id="clip-path">
      <rect id="Rectangle_182" data-name="Rectangle 182" width="76.79" height="77.8" fill="#b0b554"/>
    </clipPath>
  </defs>
  <g id="Group_134" data-name="Group 134">
    <g id="Group_133" data-name="Group 133" clip-path="url(#clip-path)">
      <path id="Path_79" data-name="Path 79" d="M55.488,69.4a36.05,36.05,0,0,1-38.114-2.525A35,35,0,0,1,3.181,36.023,35.087,35.087,0,0,1,21.718,8.2,35.994,35.994,0,0,1,56.532,9,34.6,34.6,0,0,1,73.418,43.724c-.128.912.094,2.169,1.093,2.519.932.326,1.764-.587,1.885-1.447A39.65,39.65,0,0,0,62.154,8.273,38.435,38.435,0,0,0,24.963,2.41,39.079,39.079,0,0,0,.855,30.627,39.654,39.654,0,0,0,11.95,67.137a38.406,38.406,0,0,0,38.94,8.609,37.787,37.787,0,0,0,5.444-2.392,2.262,2.262,0,0,0,1.058-2.534c-.158-.731-.986-1.912-1.9-1.421" transform="translate(0 -0.001)" fill="#b0b554"/>
      <path id="Path_80" data-name="Path 80" d="M182.509,80.937V54.887a2.193,2.193,0,0,0-1.713-2.146c-1.068-.078-1.442,1.033-1.442,1.889V80.68a2.193,2.193,0,0,0,1.713,2.146c1.068.078,1.442-1.033,1.442-1.889" transform="translate(-142.52 -41.906)" fill="#b0b554"/>
      <path id="Path_81" data-name="Path 81" d="M141.471,197.262l8.362-14.134a2.505,2.505,0,0,0-.22-2.855c-.517-.626-1.7-1.034-2.228-.146l-8.362,14.134a2.506,2.506,0,0,0,.22,2.855c.516.626,1.7,1.034,2.228.146" transform="translate(-110.197 -142.726)" fill="#b0b554"/>
    </g>
  </g>
  <text id="_7" data-name="7" transform="translate(20.236 63.138)" fill="#b0b554" font-size="11" font-family="Capriola-Regular, Capriola"><tspan x="0" y="0">7</tspan></text>
</svg>
