<svg id="Group_137" data-name="Group 137" xmlns="http://www.w3.org/2000/svg" xmlns:xlink="http://www.w3.org/1999/xlink" width="76" height="74.889" viewBox="0 0 76 74.889">
  <defs>
    <clipPath id="clip-path">
      <rect id="Rectangle_183" data-name="Rectangle 183" width="76" height="74.889" fill="none"/>
    </clipPath>
  </defs>
  <g id="Group_136" data-name="Group 136" clip-path="url(#clip-path)">
    <path id="Path_82" data-name="Path 82" d="M121.985,118.225a15.83,15.83,0,0,1-17.246,4.481,17.018,17.018,0,0,1-10.886-12.752,16.467,16.467,0,0,1,5.6-15.734,15.907,15.907,0,0,1,16.125-2.2,17.113,17.113,0,0,1,10.32,15.719c.008,1.005,1.381,1.194,2.1.989a2.2,2.2,0,0,0,1.7-2.079A19.438,19.438,0,0,0,119.492,89.8a20.352,20.352,0,0,0-29.709,19.053,19.429,19.429,0,0,0,11.116,16.2c8.268,3.863,18.192,1.34,24.089-5.466a1.358,1.358,0,0,0-.319-2.16,2.42,2.42,0,0,0-2.684.8" transform="translate(-71.724 -69.932)" fill="#b0b554"/>
    <path id="Path_83" data-name="Path 83" d="M54.817,67.378a33.625,33.625,0,0,1-42.152-6.96,35.12,35.12,0,0,1-4.21-40.053,34.136,34.136,0,0,1,35.8-16.792A34.665,34.665,0,0,1,71.541,32.151c.541,3.609.891,7.764-.541,11.2a10.508,10.508,0,0,1-7.37,6.188,4.575,4.575,0,0,1-4.089-.593,4.373,4.373,0,0,1-1.485-3.4c-.029-2.131.012-4.264.018-6.395l.005-1.96c.006-2-4.009-1.885-4.014.131l-.018,6.49c0,.787-.046,1.587.012,2.373a7,7,0,0,0,2.919,5.141c3.488,2.507,8.682,1.458,12.117-.626A13.856,13.856,0,0,0,75.7,41.149a32.885,32.885,0,0,0-.867-12.737A36.908,36.908,0,0,0,70.3,17.764,37.932,37.932,0,0,0,52.8,2.908,38.71,38.71,0,0,0,8.869,13.368,37.232,37.232,0,0,0,5.934,57.648C15.2,72.157,34.043,78.436,50.274,72.889a38.824,38.824,0,0,0,6.654-2.977c2.277-1.294-.288-3.57-2.111-2.534" transform="translate(0 0)" fill="#b0b554"/>
  </g>
</svg>
