<svg xmlns="http://www.w3.org/2000/svg" width="1440" height="1109.237" viewBox="0 0 1440 1109.237">
  <path id="Path_57" data-name="Path 57" d="M567.136,38.283q-137.111,67.751-266.25,145.642c-80.319,48.454-159.435,100.91-214.6,169.033C3.716,454.91-17.416,586.008,15.016,705.48s115.262,227.409,221.828,313.08c46.124,37.08,98.735,71.21,161.02,85.211s136,3.92,178.313-36.1c26.912-25.449,38.182-59.169,54.208-90.188C674.307,892.474,756.6,824.71,844.507,767.042A1649.271,1649.271,0,0,1,1116.321,623.6c75.279-31.27,154.659-58.1,219.438-102.46s113.975-111.4,103.274-180.055c-11.5-73.8-86.732-129.191-162.38-170.23C1064.334,55.673,769.471-61.7,567.136,38.283" transform="translate(-0.499 -0.504)" fill="#f5f4f4"/>
</svg>
